<svg width="100" height="100" viewBox="0 0 100 100" fill="none" xmlns="http://www.w3.org/2000/svg">
<path fill-rule="evenodd" clip-rule="evenodd" d="M0 32C0 37.5228 4.47716 42 10 42H42V22L10 22C4.47715 22 0 26.4772 0 32ZM58 22V42L90 42C95.5229 42 100 37.5228 100 32C100 26.4772 95.5228 22 90 22L58 22Z" fill="#FBBF24"/>
<path fill-rule="evenodd" clip-rule="evenodd" d="M0 68C0 73.5229 4.47716 78 10 78H42V58H10C4.47715 58 0 62.4772 0 68ZM58 58V78H90C95.5229 78 100 73.5229 100 68C100 62.4772 95.5228 58 90 58H58Z" fill="#FBBF24"/>
<path fill-rule="evenodd" clip-rule="evenodd" d="M68 0C62.4772 0 58 4.47716 58 10V42H78V10C78 4.47715 73.5229 0 68 0ZM78 58H58V90C58 95.5229 62.4772 100 68 100C73.5229 100 78 95.5228 78 90V58Z" fill="#F59E0B"/>
<path fill-rule="evenodd" clip-rule="evenodd" d="M32 0C26.4772 0 22 4.47716 22 10L22 42H42V10C42 4.47715 37.5228 0 32 0ZM42 58H22L22 90C22 95.5229 26.4772 100 32 100C37.5228 100 42 95.5228 42 90L42 58Z" fill="#F59E0B"/>
</svg>
